<mxfile host="app.diagrams.net" modified="2023-10-10T09:18:10.591Z" agent="Mozilla/5.0 (X11; Linux x86_64; rv:109.0) Gecko/20100101 Firefox/119.0" etag="W-dlujTlOQD0aWs2TMCA" version="22.0.4" type="device">
  <diagram name="Page-1" id="08IMatEZmekrS6HwiXAe">
    <mxGraphModel dx="1492" dy="766" grid="1" gridSize="10" guides="1" tooltips="1" connect="1" arrows="1" fold="1" page="1" pageScale="1" pageWidth="827" pageHeight="1169" math="0" shadow="0">
      <root>
        <mxCell id="0" />
        <mxCell id="1" parent="0" />
        <mxCell id="7edZLpc_wKW0_gSRWfsj-13" style="edgeStyle=orthogonalEdgeStyle;rounded=0;orthogonalLoop=1;jettySize=auto;html=1;entryX=0;entryY=0.5;entryDx=0;entryDy=0;endArrow=none;endFill=0;" edge="1" parent="1" source="7edZLpc_wKW0_gSRWfsj-1" target="7edZLpc_wKW0_gSRWfsj-9">
          <mxGeometry relative="1" as="geometry">
            <Array as="points">
              <mxPoint x="65" y="250" />
              <mxPoint x="170" y="250" />
            </Array>
          </mxGeometry>
        </mxCell>
        <mxCell id="7edZLpc_wKW0_gSRWfsj-1" value="Médecin" style="shape=umlActor;verticalLabelPosition=bottom;verticalAlign=top;html=1;outlineConnect=0;" vertex="1" parent="1">
          <mxGeometry x="50" y="180" width="30" height="60" as="geometry" />
        </mxCell>
        <mxCell id="7edZLpc_wKW0_gSRWfsj-14" style="edgeStyle=orthogonalEdgeStyle;rounded=0;orthogonalLoop=1;jettySize=auto;html=1;exitX=0.5;exitY=0;exitDx=0;exitDy=0;exitPerimeter=0;entryX=0;entryY=0.75;entryDx=0;entryDy=0;endArrow=none;endFill=0;" edge="1" parent="1" source="7edZLpc_wKW0_gSRWfsj-2" target="7edZLpc_wKW0_gSRWfsj-9">
          <mxGeometry relative="1" as="geometry">
            <Array as="points">
              <mxPoint x="65" y="290" />
              <mxPoint x="170" y="290" />
            </Array>
          </mxGeometry>
        </mxCell>
        <mxCell id="7edZLpc_wKW0_gSRWfsj-2" value="Soignant(e)" style="shape=umlActor;verticalLabelPosition=bottom;verticalAlign=top;html=1;outlineConnect=0;" vertex="1" parent="1">
          <mxGeometry x="50" y="310" width="30" height="60" as="geometry" />
        </mxCell>
        <mxCell id="7edZLpc_wKW0_gSRWfsj-15" style="edgeStyle=orthogonalEdgeStyle;rounded=0;orthogonalLoop=1;jettySize=auto;html=1;entryX=0.5;entryY=1;entryDx=0;entryDy=0;endArrow=none;endFill=0;" edge="1" parent="1" source="7edZLpc_wKW0_gSRWfsj-8" target="7edZLpc_wKW0_gSRWfsj-9">
          <mxGeometry relative="1" as="geometry" />
        </mxCell>
        <mxCell id="7edZLpc_wKW0_gSRWfsj-16" style="edgeStyle=orthogonalEdgeStyle;rounded=0;orthogonalLoop=1;jettySize=auto;html=1;entryX=0.75;entryY=1;entryDx=0;entryDy=0;endArrow=none;endFill=0;dashed=1;dashPattern=8 8;" edge="1" parent="1" source="7edZLpc_wKW0_gSRWfsj-8" target="7edZLpc_wKW0_gSRWfsj-10">
          <mxGeometry relative="1" as="geometry">
            <Array as="points">
              <mxPoint x="450" y="450" />
            </Array>
          </mxGeometry>
        </mxCell>
        <mxCell id="7edZLpc_wKW0_gSRWfsj-17" style="edgeStyle=orthogonalEdgeStyle;rounded=0;orthogonalLoop=1;jettySize=auto;html=1;endArrow=none;endFill=0;strokeColor=default;dashed=1;dashPattern=8 8;" edge="1" parent="1" source="7edZLpc_wKW0_gSRWfsj-8" target="7edZLpc_wKW0_gSRWfsj-11">
          <mxGeometry relative="1" as="geometry" />
        </mxCell>
        <mxCell id="7edZLpc_wKW0_gSRWfsj-8" value="Administrateur" style="shape=umlActor;verticalLabelPosition=bottom;verticalAlign=top;html=1;outlineConnect=0;" vertex="1" parent="1">
          <mxGeometry x="360" y="420" width="30" height="60" as="geometry" />
        </mxCell>
        <mxCell id="7edZLpc_wKW0_gSRWfsj-18" style="edgeStyle=orthogonalEdgeStyle;rounded=0;orthogonalLoop=1;jettySize=auto;html=1;entryX=0;entryY=0.5;entryDx=0;entryDy=0;endArrow=none;endFill=0;" edge="1" parent="1" source="7edZLpc_wKW0_gSRWfsj-9" target="7edZLpc_wKW0_gSRWfsj-10">
          <mxGeometry relative="1" as="geometry" />
        </mxCell>
        <mxCell id="7edZLpc_wKW0_gSRWfsj-9" value="Front-end" style="rounded=0;whiteSpace=wrap;html=1;" vertex="1" parent="1">
          <mxGeometry x="170" y="240" width="120" height="60" as="geometry" />
        </mxCell>
        <mxCell id="7edZLpc_wKW0_gSRWfsj-19" style="edgeStyle=orthogonalEdgeStyle;rounded=0;orthogonalLoop=1;jettySize=auto;html=1;entryX=0;entryY=0.5;entryDx=0;entryDy=0;endArrow=none;endFill=0;" edge="1" parent="1" source="7edZLpc_wKW0_gSRWfsj-10" target="7edZLpc_wKW0_gSRWfsj-11">
          <mxGeometry relative="1" as="geometry" />
        </mxCell>
        <mxCell id="7edZLpc_wKW0_gSRWfsj-10" value="Back-end" style="rounded=0;whiteSpace=wrap;html=1;" vertex="1" parent="1">
          <mxGeometry x="360" y="240" width="120" height="60" as="geometry" />
        </mxCell>
        <mxCell id="7edZLpc_wKW0_gSRWfsj-11" value="Base de données" style="rounded=0;whiteSpace=wrap;html=1;" vertex="1" parent="1">
          <mxGeometry x="550" y="240" width="120" height="60" as="geometry" />
        </mxCell>
      </root>
    </mxGraphModel>
  </diagram>
</mxfile>
